# xmcd
#
# Track frame offsets:
#	150
#	18607
#	31822
#	50592
#	70922
#	87480
#	106590
#	126217
#	144907
#	164140
#	177665
#	199384
#	220640
#	235320
#	256285
#	273687
#	290337
#	303407
#
# Disc length: 4227 seconds
#
# Revision: 0
# Processed by: cddbd v1.4PL0 Copyright (c) Steve Scherf et al.
# Submitted via: dBpowerAMP V4.0
#
DISCID=12108112
DTITLE=sharon cuneta - the other side of me
DYEAR=1900
DGENRE=love ballad
TTITLE0=na aalala ka
TTITLE1=kay sarap mong kasama
TTITLE2=one last time
TTITLE3=akala ko
TTITLE4=can't let you walk away
TTITLE5=now that you're gone
TTITLE6=what loving you was like at all
TTITLE7=maybe someday
TTITLE8=kumusta ka
TTITLE9=the other side of me
TTITLE10=iduyan mo
TTITLE11=sinasamba kita
TTITLE12=langis at tubig
TTITLE13=sana'y maghintay ang walang hanggan
TTITLE14=p.s. i love you
TTITLE15=high school life
TTITLE16=ayoko na sa 'yo
TTITLE17=mahal mo pa ba ako
EXTD=
EXTT0=
EXTT1=
EXTT2=
EXTT3=
EXTT4=
EXTT5=
EXTT6=
EXTT7=
EXTT8=
EXTT9=
EXTT10=
EXTT11=
EXTT12=
EXTT13=
EXTT14=
EXTT15=
EXTT16=
EXTT17=
PLAYORDER=
